<svg width="32" height="32" viewBox="0 0 32 32" fill="none" xmlns="http://www.w3.org/2000/svg">
<rect width="32" height="32" fill="white"/>
<path d="M17.4999 11.5H8.5V13H17.4999V11.5Z" fill="#F3322C"/>
<path d="M27.9999 11.5H19V13H27.9999V11.5Z" fill="#F3322C"/>
<path d="M9.99999 13H8.5V14.5H9.99999V13Z" fill="#F3322C"/>
<path d="M13.0002 13H10.0002V14.5H13.0002V13Z" fill="white"/>
<path d="M16 13H13V14.5H16V13Z" fill="black"/>
<path d="M17.5 13H16V14.5H17.5V13Z" fill="#F3322C"/>
<path d="M20.5 13H19V14.5H20.5V13Z" fill="#F3322C"/>
<path d="M23.5 13H20.5V14.5H23.5V13Z" fill="white"/>
<path d="M26.5 13H23.5V14.5H26.5V13Z" fill="black"/>
<path d="M27.9997 13H26.4998V14.5H27.9997V13Z" fill="#F3322C"/>
<path d="M9.99995 14.4999H4V15.9999H9.99995V14.4999Z" fill="#F3322C"/>
<path d="M13.0002 14.4999H10.0002V15.9999H13.0002V14.4999Z" fill="white"/>
<path d="M16 14.4999H13V15.9999H16V14.4999Z" fill="black"/>
<path d="M20.5 14.4999H16V15.9999H20.5V14.4999Z" fill="#F3322C"/>
<path d="M23.5 14.4999H20.5V15.9999H23.5V14.4999Z" fill="white"/>
<path d="M26.5 14.4999H23.5V15.9999H26.5V14.4999Z" fill="black"/>
<path d="M27.9997 14.4999H26.4998V15.9999H27.9997V14.4999Z" fill="#F3322C"/>
<path d="M5.49999 16H4V17.5H5.49999V16Z" fill="#F3322C"/>
<path d="M9.99999 16H8.5V17.5H9.99999V16Z" fill="#F3322C"/>
<path d="M13.0002 16H10.0002V17.5H13.0002V16Z" fill="white"/>
<path d="M16 16H13V17.5H16V16Z" fill="black"/>
<path d="M17.5 16H16V17.5H17.5V16Z" fill="#F3322C"/>
<path d="M20.5 16H19V17.5H20.5V16Z" fill="#F3322C"/>
<path d="M23.5 16H20.5V17.5H23.5V16Z" fill="white"/>
<path d="M26.5 16H23.5V17.5H26.5V16Z" fill="black"/>
<path d="M27.9997 16H26.4998V17.5H27.9997V16Z" fill="#F3322C"/>
<path d="M5.49999 17.5H4V19H5.49999V17.5Z" fill="#F3322C"/>
<path d="M9.99999 17.5H8.5V19H9.99999V17.5Z" fill="#F3322C"/>
<path d="M13.0002 17.5H10.0002V19H13.0002V17.5Z" fill="white"/>
<path d="M16 17.5H13V19H16V17.5Z" fill="black"/>
<path d="M17.5 17.5H16V19H17.5V17.5Z" fill="#F3322C"/>
<path d="M20.5 17.5H19V19H20.5V17.5Z" fill="#F3322C"/>
<path d="M23.5 17.5H20.5V19H23.5V17.5Z" fill="white"/>
<path d="M26.5 17.5H23.5V19H26.5V17.5Z" fill="black"/>
<path d="M27.9997 17.5H26.4998V19H27.9997V17.5Z" fill="#F3322C"/>
<path d="M17.4999 18.9999H8.5V20.4999H17.4999V18.9999Z" fill="#F3322C"/>
<path d="M27.9999 18.9999H19V20.4999H27.9999V18.9999Z" fill="#F3322C"/>
</svg>
