<svg width="125" height="125" viewBox="0 0 125 125" fill="none" xmlns="http://www.w3.org/2000/svg">
<path d="M62.5 42.9688H39.0625V46.875H62.5V42.9688Z" fill="#F3322C"/>
<path d="M89.8438 42.9688H66.4062V46.875H89.8438V42.9688Z" fill="#F3322C"/>
<path d="M42.9688 46.875H39.0625V50.7812H42.9688V46.875Z" fill="#F3322C"/>
<path d="M50.7812 46.875H42.9688V50.7812H50.7812V46.875Z" fill="white"/>
<path d="M58.5938 46.875H50.7812V50.7812H58.5938V46.875Z" fill="black"/>
<path d="M62.5 46.875H58.5938V50.7812H62.5V46.875Z" fill="#F3322C"/>
<path d="M70.3125 46.875H66.4062V50.7812H70.3125V46.875Z" fill="#F3322C"/>
<path d="M78.125 46.875H70.3125V50.7812H78.125V46.875Z" fill="white"/>
<path d="M85.9375 46.875H78.125V50.7812H85.9375V46.875Z" fill="black"/>
<path d="M89.8438 46.875H85.9375V50.7812H89.8438V46.875Z" fill="#F3322C"/>
<path d="M42.9688 50.7812H27.3438V54.6875H42.9688V50.7812Z" fill="#F3322C"/>
<path d="M50.7812 50.7812H42.9688V54.6875H50.7812V50.7812Z" fill="white"/>
<path d="M58.5938 50.7812H50.7812V54.6875H58.5938V50.7812Z" fill="black"/>
<path d="M70.3125 50.7812H58.5938V54.6875H70.3125V50.7812Z" fill="#F3322C"/>
<path d="M78.125 50.7812H70.3125V54.6875H78.125V50.7812Z" fill="white"/>
<path d="M85.9375 50.7812H78.125V54.6875H85.9375V50.7812Z" fill="black"/>
<path d="M89.8438 50.7812H85.9375V54.6875H89.8438V50.7812Z" fill="#F3322C"/>
<path d="M31.25 54.6875H27.3438V58.5938H31.25V54.6875Z" fill="#F3322C"/>
<path d="M42.9688 54.6875H39.0625V58.5938H42.9688V54.6875Z" fill="#F3322C"/>
<path d="M50.7812 54.6875H42.9688V58.5938H50.7812V54.6875Z" fill="white"/>
<path d="M58.5938 54.6875H50.7812V58.5938H58.5938V54.6875Z" fill="black"/>
<path d="M62.5 54.6875H58.5938V58.5938H62.5V54.6875Z" fill="#F3322C"/>
<path d="M70.3125 54.6875H66.4062V58.5938H70.3125V54.6875Z" fill="#F3322C"/>
<path d="M78.125 54.6875H70.3125V58.5938H78.125V54.6875Z" fill="white"/>
<path d="M85.9375 54.6875H78.125V58.5938H85.9375V54.6875Z" fill="black"/>
<path d="M89.8438 54.6875H85.9375V58.5938H89.8438V54.6875Z" fill="#F3322C"/>
<path d="M31.25 58.5938H27.3438V62.5H31.25V58.5938Z" fill="#F3322C"/>
<path d="M42.9688 58.5938H39.0625V62.5H42.9688V58.5938Z" fill="#F3322C"/>
<path d="M50.7812 58.5938H42.9688V62.5H50.7812V58.5938Z" fill="white"/>
<path d="M58.5938 58.5938H50.7812V62.5H58.5938V58.5938Z" fill="black"/>
<path d="M62.5 58.5938H58.5938V62.5H62.5V58.5938Z" fill="#F3322C"/>
<path d="M70.3125 58.5938H66.4062V62.5H70.3125V58.5938Z" fill="#F3322C"/>
<path d="M78.125 58.5938H70.3125V62.5H78.125V58.5938Z" fill="white"/>
<path d="M85.9375 58.5938H78.125V62.5H85.9375V58.5938Z" fill="black"/>
<path d="M89.8438 58.5938H85.9375V62.5H89.8438V58.5938Z" fill="#F3322C"/>
<path d="M62.5 62.5H39.0625V66.4062H62.5V62.5Z" fill="#F3322C"/>
<path d="M89.8438 62.5H66.4062V66.4062H89.8438V62.5Z" fill="#F3322C"/>
</svg>
