<svg width="71" height="36" viewBox="0 0 71 36" fill="none" xmlns="http://www.w3.org/2000/svg">
<path d="M39.1562 6H15.7188V9.90625H39.1562V6Z" fill="#F3322C"/>
<path d="M66.5 6H43.0625V9.90625H66.5V6Z" fill="#F3322C"/>
<path d="M19.625 9.90625H15.7188V13.8125H19.625V9.90625Z" fill="#F3322C"/>
<path d="M27.4375 9.90625H19.625V13.8125H27.4375V9.90625Z" fill="white"/>
<path d="M35.25 9.90625H27.4375V13.8125H35.25V9.90625Z" fill="black"/>
<path d="M39.1562 9.90625H35.25V13.8125H39.1562V9.90625Z" fill="#F3322C"/>
<path d="M46.9688 9.90625H43.0625V13.8125H46.9688V9.90625Z" fill="#F3322C"/>
<path d="M54.7812 9.90625H46.9688V13.8125H54.7812V9.90625Z" fill="white"/>
<path d="M62.5938 9.90625H54.7812V13.8125H62.5938V9.90625Z" fill="black"/>
<path d="M66.5 9.90625H62.5938V13.8125H66.5V9.90625Z" fill="#F3322C"/>
<path d="M19.625 13.8125H4V17.7188H19.625V13.8125Z" fill="#F3322C"/>
<path d="M27.4375 13.8125H19.625V17.7188H27.4375V13.8125Z" fill="white"/>
<path d="M35.25 13.8125H27.4375V17.7188H35.25V13.8125Z" fill="black"/>
<path d="M46.9688 13.8125H35.25V17.7188H46.9688V13.8125Z" fill="#F3322C"/>
<path d="M54.7812 13.8125H46.9688V17.7188H54.7812V13.8125Z" fill="white"/>
<path d="M62.5938 13.8125H54.7812V17.7188H62.5938V13.8125Z" fill="black"/>
<path d="M66.5 13.8125H62.5938V17.7188H66.5V13.8125Z" fill="#F3322C"/>
<path d="M7.90625 17.7188H4V21.625H7.90625V17.7188Z" fill="#F3322C"/>
<path d="M19.625 17.7188H15.7188V21.625H19.625V17.7188Z" fill="#F3322C"/>
<path d="M27.4375 17.7188H19.625V21.625H27.4375V17.7188Z" fill="white"/>
<path d="M35.25 17.7188H27.4375V21.625H35.25V17.7188Z" fill="black"/>
<path d="M39.1562 17.7188H35.25V21.625H39.1562V17.7188Z" fill="#F3322C"/>
<path d="M46.9688 17.7188H43.0625V21.625H46.9688V17.7188Z" fill="#F3322C"/>
<path d="M54.7812 17.7188H46.9688V21.625H54.7812V17.7188Z" fill="white"/>
<path d="M62.5938 17.7188H54.7812V21.625H62.5938V17.7188Z" fill="black"/>
<path d="M66.5 17.7188H62.5938V21.625H66.5V17.7188Z" fill="#F3322C"/>
<path d="M7.90625 21.625H4V25.5312H7.90625V21.625Z" fill="#F3322C"/>
<path d="M19.625 21.625H15.7188V25.5312H19.625V21.625Z" fill="#F3322C"/>
<path d="M27.4375 21.625H19.625V25.5312H27.4375V21.625Z" fill="white"/>
<path d="M35.25 21.625H27.4375V25.5312H35.25V21.625Z" fill="black"/>
<path d="M39.1562 21.625H35.25V25.5312H39.1562V21.625Z" fill="#F3322C"/>
<path d="M46.9688 21.625H43.0625V25.5312H46.9688V21.625Z" fill="#F3322C"/>
<path d="M54.7812 21.625H46.9688V25.5312H54.7812V21.625Z" fill="white"/>
<path d="M62.5938 21.625H54.7812V25.5312H62.5938V21.625Z" fill="black"/>
<path d="M66.5 21.625H62.5938V25.5312H66.5V21.625Z" fill="#F3322C"/>
<path d="M39.1562 25.5312H15.7188V29.4375H39.1562V25.5312Z" fill="#F3322C"/>
<path d="M66.5 25.5312H43.0625V29.4375H66.5V25.5312Z" fill="#F3322C"/>
</svg>
