<svg width="24" height="24" viewBox="0 0 24 24" fill="none" xmlns="http://www.w3.org/2000/svg">
<path d="M11.944 0A12 12 0 0 0 0 12a12 12 0 0 0 12 12 12 12 0 0 0 12-12A12 12 0 0 0 12 0a12 12 0 0 0-.056 0zm4.962 7.224c.1-.002.321.023.465.14a.506.506 0 0 1 .171.325c.016.093.036.306.02.472-.18 1.898-.962 6.502-.962 6.502-.11.738-.623 1.022-.623 1.022-.696.006-1.745-.097-2.938-.151-.146-.006-.165-.132-.062-.15l.506-.083c.557-.106.864-.176.864-.176s-.084-.107-.141-.23c-.084-.146-.187-.392-.232-.621-.009-.056-.063-.076-.109-.059-.44.166-.961.312-1.683.312-.722 0-1.243-.146-1.683-.312-.046-.017-.1.003-.109.059-.045.229-.148.475-.232.621-.057.123-.141.23-.141.23s.307.07.864.176l.506.083c.103.018.084.144-.062.15-1.193.054-2.242.157-2.938.151 0 0-.513-.284-.623-1.022 0 0-.782-4.604-.962-6.502-.016-.166.004-.379.02-.472a.506.506 0 0 1 .171-.325c.144-.117.365-.142.465-.14.222.002.378.055.378.055.12.062.244.138.361.231.106.084.206.179.293.287.105.127.195.268.27.413.106.208.189.433.236.666.004.02.014.04.03.055.018.016.042.025.067.025.025 0 .049-.009.067-.025.016-.015.026-.035.03-.055.047-.233.13-.458.236-.666.075-.145.165-.286.27-.413.087-.108.187-.203.293-.287.117-.093.241-.169.361-.231 0 0 .156-.053.378-.055zm-6.608 4.048c.311 0 .563.234.563.522 0 .288-.252.522-.563.522-.311 0-.563-.234-.563-.522 0-.288.252-.522.563-.522zm4.608 0c.311 0 .563.234.563.522 0 .288-.252.522-.563.522-.311 0-.563-.234-.563-.522 0-.288.252-.522.563-.522z" fill="#0088cc"/>
</svg>
